<svg width="92" height="16" viewBox="0 0 92 16" fill="none" xmlns="http://www.w3.org/2000/svg">
<path d="M7.10616 1.20359C7.50337 0.624014 8.3587 0.624014 8.75591 1.20359L10.5271 3.7879C10.6571 3.97764 10.8485 4.11674 11.0692 4.18178L14.0743 5.06764C14.7483 5.26631 15.0126 6.07977 14.5841 6.63664L12.6736 9.1197C12.5333 9.30199 12.4602 9.52707 12.4665 9.757L12.5527 12.8888C12.572 13.5912 11.88 14.0939 11.218 13.8585L8.26608 12.8088C8.04936 12.7317 7.8127 12.7317 7.59599 12.8088L4.64407 13.8585C3.98206 14.0939 3.29009 13.5912 3.30941 12.8888L3.39554 9.757C3.40187 9.52707 3.32873 9.30199 3.18847 9.1197L1.27795 6.63664C0.849489 6.07977 1.1138 5.26631 1.78775 5.06764L4.7929 4.18178C5.01352 4.11674 5.20499 3.97764 5.33502 3.7879L7.10616 1.20359Z" fill="#FFA800"/>
<path d="M26.1408 1.20359C26.538 0.624014 27.3934 0.624014 27.7906 1.20359L29.5617 3.7879C29.6918 3.97764 29.8832 4.11674 30.1038 4.18178L33.109 5.06764C33.7829 5.26631 34.0472 6.07977 33.6188 6.63664L31.7083 9.1197C31.568 9.30199 31.4949 9.52707 31.5012 9.757L31.5873 12.8888C31.6066 13.5912 30.9147 14.0939 30.2527 13.8585L27.3007 12.8088C27.084 12.7317 26.8474 12.7317 26.6307 12.8088L23.6787 13.8585C23.0167 14.0939 22.3248 13.5912 22.3441 12.8888L22.4302 9.757C22.4365 9.52707 22.3634 9.30199 22.2231 9.1197L20.3126 6.63664C19.8842 6.07977 20.1485 5.26631 20.8224 5.06764L23.8276 4.18178C24.0482 4.11674 24.2397 3.97764 24.3697 3.7879L26.1408 1.20359Z" fill="#FFA800"/>
<path d="M45.175 1.20359C45.5722 0.624014 46.4275 0.624014 46.8248 1.20359L48.5959 3.7879C48.7259 3.97764 48.9174 4.11674 49.138 4.18178L52.1432 5.06764C52.8171 5.26631 53.0814 6.07977 52.653 6.63664L50.7424 9.1197C50.6022 9.30199 50.5291 9.52707 50.5354 9.757L50.6215 12.8888C50.6408 13.5912 49.9489 14.0939 49.2868 13.8585L46.3349 12.8088C46.1182 12.7317 45.8816 12.7317 45.6648 12.8088L42.7129 13.8585C42.0509 14.0939 41.3589 13.5912 41.3783 12.8888L41.4644 9.757C41.4707 9.52707 41.3976 9.30199 41.2573 9.1197L39.3468 6.63664C38.9183 6.07977 39.1826 5.26631 39.8566 5.06764L42.8617 4.18178C43.0824 4.11674 43.2738 3.97764 43.4039 3.7879L45.175 1.20359Z" fill="#FFA800"/>
<path d="M64.2097 1.20359C64.6069 0.624014 65.4622 0.624014 65.8594 1.20359L67.6306 3.7879C67.7606 3.97764 67.9521 4.11674 68.1727 4.18178L71.1778 5.06764C71.8518 5.26631 72.1161 6.07977 71.6876 6.63664L69.7771 9.1197C69.6369 9.30199 69.5637 9.52707 69.57 9.757L69.6562 12.8888C69.6755 13.5912 68.9835 14.0939 68.3215 13.8585L65.3696 12.8088C65.1529 12.7317 64.9162 12.7317 64.6995 12.8088L61.7476 13.8585C61.0856 14.0939 60.3936 13.5912 60.4129 12.8888L60.4991 9.757C60.5054 9.52707 60.4322 9.30199 60.292 9.1197L58.3815 6.63664C57.953 6.07977 58.2173 5.26631 58.8913 5.06764L61.8964 4.18178C62.117 4.11674 62.3085 3.97764 62.4385 3.7879L64.2097 1.20359Z" fill="#FFA800"/>
<path d="M83.2439 1.20359C83.6411 0.624014 84.4964 0.624014 84.8936 1.20359L86.6647 3.7879C86.7948 3.97764 86.9862 4.11674 87.2069 4.18178L90.212 5.06764C90.886 5.26631 91.1503 6.07977 90.7218 6.63664L88.8113 9.1197C88.671 9.30199 88.5979 9.52707 88.6042 9.757L88.6904 12.8888C88.7097 13.5912 88.0177 14.0939 87.3557 13.8585L84.4038 12.8088C84.1871 12.7317 83.9504 12.7317 83.7337 12.8088L80.7818 13.8585C80.1198 14.0939 79.4278 13.5912 79.4471 12.8888L79.5332 9.757C79.5396 9.52707 79.4664 9.30199 79.3262 9.1197L77.4156 6.63664C76.9872 6.07977 77.2515 5.26631 77.9254 5.06764L80.9306 4.18178C81.1512 4.11674 81.3427 3.97764 81.4727 3.7879L83.2439 1.20359Z" fill="#FFA800"/>
</svg>
