<svg width="141" height="141" viewBox="0 0 141 141" fill="none" xmlns="http://www.w3.org/2000/svg">
<g filter="url(#filter0_d_1_6415)">
<circle cx="70.5" cy="60.5" r="46.5" fill="url(#paint0_linear_1_6415)"/>
</g>
<g clip-path="url(#clip0_1_6415)">
<path fill-rule="evenodd" clip-rule="evenodd" d="M61.2165 53.6245C62.988 53.6246 64.7198 53.0993 66.1928 52.1152C67.6658 51.131 68.8139 49.7322 69.4919 48.0955C70.1699 46.4588 70.3473 44.6579 70.0017 42.9204C69.6561 41.1829 68.8031 39.5869 67.5504 38.3342C66.2978 37.0815 64.7018 36.2284 62.9643 35.8828C61.2268 35.5372 59.4259 35.7146 57.7892 36.3925C56.1525 37.0705 54.7536 38.2185 53.7694 39.6915C52.7852 41.1645 52.2599 42.8963 52.26 44.6678C52.2626 47.0424 53.2071 49.319 54.8862 50.9982C56.5653 52.6773 58.8419 53.6218 61.2165 53.6245ZM44.2183 70.2574V53.27C44.2183 52.2065 44.6407 51.1866 45.3928 50.4345C46.1448 49.6825 47.1647 49.26 48.2283 49.26C49.2918 49.26 50.3117 49.6825 51.0638 50.4345C51.8158 51.1866 52.2383 52.2065 52.2383 53.27V59.4685H58.9066C58.9938 58.3623 59.4943 57.3294 60.3087 56.5756C61.123 55.8218 62.1914 55.4024 63.3011 55.4008H88.2191C88.6345 54.6056 89.3046 53.9726 90.1222 53.6033C90.9398 53.2339 91.8577 53.1495 92.729 53.3635C93.6003 53.5775 94.3746 54.0776 94.928 54.7837C95.4815 55.4898 95.7821 56.3612 95.7818 57.2584V70.2574C95.7818 70.5806 95.6534 70.8906 95.4248 71.1192C95.1962 71.3477 94.8862 71.4761 94.563 71.4761H93.0091V78.0504C93.9159 78.3239 94.7041 78.8951 95.2463 79.6718C95.7885 80.4484 96.0531 81.3852 95.9973 82.3307C95.9415 83.2763 95.5687 84.1754 94.939 84.8829C94.3092 85.5905 93.4594 86.0651 92.5267 86.2301C91.594 86.3951 90.6329 86.241 89.7986 85.7925C88.9643 85.344 88.3055 84.6274 87.9287 83.7584C87.5519 82.8894 87.4789 81.9187 87.7217 81.0032C87.9645 80.0876 88.5088 79.2807 89.2667 78.7126H50.7329C51.4896 79.2804 52.033 80.0866 52.2751 81.0012C52.5173 81.9158 52.4441 82.8852 52.0675 83.7531C51.6909 84.621 51.0328 85.3366 50.1994 85.7845C49.3661 86.2323 48.4061 86.3863 47.4745 86.2214C46.5429 86.0566 45.694 85.5826 45.0649 84.876C44.4359 84.1693 44.0633 83.2713 44.0074 82.3269C43.9514 81.3825 44.2154 80.4468 44.7567 79.6708C45.298 78.8949 46.085 78.324 46.9906 78.0504V71.4761H45.4367C45.1135 71.4761 44.8035 71.3477 44.5749 71.1192C44.3464 70.8906 44.218 70.5806 44.218 70.2574H44.2183ZM49.4284 71.4761V76.275H90.5718V71.4761H49.4284ZM58.8926 64.9711V61.906H52.2383V64.9711H58.8926ZM52.2383 69.0386H87.7617V67.4086H52.2383V69.0386ZM93.3444 69.0386V57.2584C93.3444 56.8413 93.1787 56.4413 92.8838 56.1464C92.5888 55.8515 92.1888 55.6858 91.7718 55.6858C91.3547 55.6858 90.9547 55.8515 90.6598 56.1464C90.3649 56.4413 90.1992 56.8413 90.1992 57.2584V69.0386H93.3444ZM49.8008 69.0386V53.27C49.8008 52.853 49.6351 52.453 49.3402 52.1581C49.0453 51.8632 48.6453 51.6975 48.2283 51.6975C47.8112 51.6975 47.4112 51.8632 47.1163 52.1581C46.8214 52.453 46.6558 52.853 46.6558 53.27V69.0386H49.8008ZM62.4351 48.4011C62.4351 48.7244 62.3067 49.0344 62.0782 49.2629C61.8496 49.4915 61.5396 49.6199 61.2164 49.6199C60.8931 49.6199 60.5832 49.4915 60.3546 49.2629C60.126 49.0344 59.9976 48.7244 59.9976 48.4011V45.8864H57.4829C57.3229 45.8864 57.1644 45.8549 57.0165 45.7937C56.8687 45.7324 56.7343 45.6427 56.6212 45.5295C56.508 45.4163 56.4182 45.282 56.357 45.1341C56.2957 44.9862 56.2642 44.8277 56.2642 44.6677C56.2642 44.5076 56.2957 44.3492 56.357 44.2013C56.4182 44.0534 56.508 43.9191 56.6212 43.8059C56.7343 43.6927 56.8687 43.603 57.0165 43.5417C57.1644 43.4805 57.3229 43.4489 57.4829 43.4489H59.9979V40.9344C59.9979 40.6111 60.1263 40.3011 60.3549 40.0726C60.5835 39.844 60.8934 39.7156 61.2167 39.7156C61.5399 39.7156 61.8499 39.844 62.0785 40.0726C62.307 40.3011 62.4354 40.6111 62.4354 40.9344V43.4489H64.9502C65.1103 43.4489 65.2688 43.4805 65.4166 43.5417C65.5645 43.603 65.6988 43.6927 65.812 43.8059C65.9252 43.9191 66.015 44.0534 66.0762 44.2013C66.1374 44.3492 66.169 44.5076 66.169 44.6677C66.169 44.8277 66.1374 44.9862 66.0762 45.1341C66.015 45.282 65.9252 45.4163 65.812 45.5295C65.6988 45.6427 65.5645 45.7324 65.4166 45.7937C65.2688 45.8549 65.1103 45.8864 64.9502 45.8864H62.4353L62.4351 48.4011Z" fill="white"/>
</g>
<defs>
<filter id="filter0_d_1_6415" x="0" y="0" width="141" height="141" filterUnits="userSpaceOnUse" color-interpolation-filters="sRGB">
<feFlood flood-opacity="0" result="BackgroundImageFix"/>
<feColorMatrix in="SourceAlpha" type="matrix" values="0 0 0 0 0 0 0 0 0 0 0 0 0 0 0 0 0 0 127 0" result="hardAlpha"/>
<feOffset dy="10"/>
<feGaussianBlur stdDeviation="12"/>
<feComposite in2="hardAlpha" operator="out"/>
<feColorMatrix type="matrix" values="0 0 0 0 0.156863 0 0 0 0 0.568627 0 0 0 0 0.8 0 0 0 0.5 0"/>
<feBlend mode="normal" in2="BackgroundImageFix" result="effect1_dropShadow_1_6415"/>
<feBlend mode="normal" in="SourceGraphic" in2="effect1_dropShadow_1_6415" result="shape"/>
</filter>
<linearGradient id="paint0_linear_1_6415" x1="24" y1="14" x2="117" y2="107" gradientUnits="userSpaceOnUse">
<stop stop-color="#4EBEFF"/>
<stop offset="1" stop-color="#0679BB"/>
</linearGradient>
<clipPath id="clip0_1_6415">
<rect width="52" height="52" fill="white" transform="translate(44 35)"/>
</clipPath>
</defs>
</svg>
