<svg width="141" height="141" viewBox="0 0 141 141" fill="none" xmlns="http://www.w3.org/2000/svg">
<g filter="url(#filter0_d_1_6444)">
<circle cx="70.5" cy="60.5" r="46.5" fill="url(#paint0_linear_1_6444)"/>
</g>
<path d="M94.1223 54.581C93.6379 50.2374 91.9896 46.1051 89.3513 42.6206C86.713 39.1361 83.1827 36.4288 79.1332 34.7844C75.0837 33.1401 70.6653 32.6199 66.3447 33.2786C62.024 33.9373 57.9614 35.7506 54.5859 38.527C51.2104 41.3034 48.6473 44.9398 47.1673 49.0521C45.6872 53.1645 45.3452 57.6003 46.1773 61.8909C47.0094 66.1816 48.9847 70.1679 51.8946 73.429C54.8046 76.69 58.5412 79.1047 62.7098 80.4181C63.6322 80.6911 64.4195 81.2988 64.9172 82.122L68.4821 88.2187C68.6548 88.4604 68.8827 88.6573 69.1469 88.7932C69.411 88.9291 69.7038 89 70.0008 89C70.2978 89 70.5906 88.9291 70.8547 88.7932C71.1189 88.6573 71.3467 88.4604 71.5194 88.2187L75.087 82.1176C75.5833 81.2974 76.3679 80.692 77.2873 80.4202C82.6523 78.7302 87.264 75.2299 90.3345 70.517C93.4051 65.8042 94.7439 60.1714 94.1223 54.581ZM81.2001 70.3333C81.199 71.3231 80.8053 72.2721 80.1054 72.972C79.4055 73.6719 78.4566 74.0656 77.4668 74.0668H62.5334C61.5436 74.0656 60.5946 73.6719 59.8948 72.972C59.1949 72.2721 58.8012 71.3231 58.8001 70.3333V44.2C58.8012 43.2103 59.1949 42.2613 59.8948 41.5615C60.5947 40.8616 61.5436 40.4679 62.5334 40.4668H77.4668C78.4566 40.4679 79.4055 40.8616 80.1054 41.5615C80.8053 42.2613 81.199 43.2103 81.2001 44.2V70.3333Z" fill="white"/>
<path d="M62.5332 44.2001V70.3333H64.3999V59.1334C64.3999 58.8882 64.4481 58.6455 64.5419 58.419C64.6357 58.1925 64.7732 57.9867 64.9466 57.8133C65.1199 57.64 65.3257 57.5025 65.5522 57.4087C65.7787 57.315 66.0215 57.2667 66.2667 57.2668H73.7332C73.9784 57.2667 74.2211 57.315 74.4476 57.4087C74.6741 57.5025 74.8799 57.64 75.0533 57.8133C75.2266 57.9867 75.3641 58.1925 75.4579 58.419C75.5517 58.6455 75.6 58.8882 75.5999 59.1334V70.3333H77.4684L77.4667 44.2001H62.5332ZM73.7332 55.4001H66.2667C66.02 55.4025 65.7753 55.3559 65.5468 55.2632C65.3182 55.1705 65.1103 55.0334 64.935 54.8598C64.7598 54.6862 64.6206 54.4796 64.5257 54.252C64.4307 54.0243 64.3819 53.7801 64.3819 53.5334C64.3819 53.2868 64.4307 53.0426 64.5257 52.8149C64.6206 52.5872 64.7598 52.3807 64.935 52.2071C65.1103 52.0335 65.3182 51.8964 65.5468 51.8037C65.7753 51.7109 66.02 51.6644 66.2667 51.6668H73.7332C73.9799 51.6644 74.2245 51.7109 74.4531 51.8037C74.6817 51.8964 74.8896 52.0335 75.0648 52.2071C75.2401 52.3807 75.3792 52.5872 75.4742 52.8149C75.5691 53.0426 75.618 53.2868 75.618 53.5334C75.618 53.7801 75.5691 54.0243 75.4742 54.252C75.3792 54.4796 75.2401 54.6862 75.0648 54.8598C74.8896 55.0334 74.6817 55.1705 74.4531 55.2632C74.2245 55.3559 73.9799 55.4025 73.7332 55.4001ZM73.7332 49.8001H66.2667C66.02 49.8025 65.7753 49.7559 65.5468 49.6632C65.3182 49.5705 65.1103 49.4334 64.935 49.2598C64.7598 49.0862 64.6206 48.8796 64.5257 48.652C64.4307 48.4243 64.3819 48.1801 64.3819 47.9334C64.3819 47.6868 64.4307 47.4426 64.5257 47.2149C64.6206 46.9872 64.7598 46.7807 64.935 46.6071C65.1103 46.4335 65.3182 46.2964 65.5468 46.2037C65.7753 46.1109 66.02 46.0644 66.2667 46.0668H73.7332C73.9799 46.0644 74.2245 46.1109 74.4531 46.2037C74.6817 46.2964 74.8896 46.4335 75.0648 46.6071C75.2401 46.7807 75.3792 46.9872 75.4742 47.2149C75.5691 47.4426 75.618 47.6868 75.618 47.9334C75.618 48.1801 75.5691 48.4243 75.4742 48.652C75.3792 48.8796 75.2401 49.0862 75.0648 49.2598C74.8896 49.4334 74.6817 49.5705 74.4531 49.6632C74.2245 49.7559 73.9799 49.8025 73.7332 49.8001Z" fill="white"/>
<path d="M68.1328 61H71.8656V70.3328H68.1328V61Z" fill="white"/>
<defs>
<filter id="filter0_d_1_6444" x="0" y="0" width="141" height="141" filterUnits="userSpaceOnUse" color-interpolation-filters="sRGB">
<feFlood flood-opacity="0" result="BackgroundImageFix"/>
<feColorMatrix in="SourceAlpha" type="matrix" values="0 0 0 0 0 0 0 0 0 0 0 0 0 0 0 0 0 0 127 0" result="hardAlpha"/>
<feOffset dy="10"/>
<feGaussianBlur stdDeviation="12"/>
<feComposite in2="hardAlpha" operator="out"/>
<feColorMatrix type="matrix" values="0 0 0 0 0.156863 0 0 0 0 0.568627 0 0 0 0 0.8 0 0 0 0.5 0"/>
<feBlend mode="normal" in2="BackgroundImageFix" result="effect1_dropShadow_1_6444"/>
<feBlend mode="normal" in="SourceGraphic" in2="effect1_dropShadow_1_6444" result="shape"/>
</filter>
<linearGradient id="paint0_linear_1_6444" x1="24" y1="14" x2="117" y2="107" gradientUnits="userSpaceOnUse">
<stop stop-color="#4EBEFF"/>
<stop offset="1" stop-color="#0679BB"/>
</linearGradient>
</defs>
</svg>
