<svg width="141" height="141" viewBox="0 0 141 141" fill="none" xmlns="http://www.w3.org/2000/svg">
<g filter="url(#filter0_d_1_6424)">
<circle cx="70.5" cy="60.5" r="46.5" fill="url(#paint0_linear_1_6424)"/>
</g>
<g clip-path="url(#clip0_1_6424)">
<path d="M73.0469 44.3438H71.5234V42.8203C71.5234 41.9783 70.8421 41.2969 70 41.2969C69.1579 41.2969 68.4766 41.9783 68.4766 42.8203V44.3438H66.9531C66.1111 44.3438 65.4297 45.0251 65.4297 45.8672C65.4297 46.7092 66.1111 47.3906 66.9531 47.3906H68.4766V48.9141C68.4766 49.7561 69.1579 50.4375 70 50.4375C70.8421 50.4375 71.5234 49.7561 71.5234 48.9141V47.3906H73.0469C73.8889 47.3906 74.5703 46.7092 74.5703 45.8672C74.5703 45.0251 73.8889 44.3438 73.0469 44.3438Z" fill="white"/>
<path d="M48.5703 59.5781H50.0938V56.5312H48.5703C46.0501 56.5312 44 58.5814 44 61.1016V85.4766C44 86.3186 44.6814 87 45.5234 87H50.0938V74.8125H47.0469V71.7656H50.0938V68.7188H47.0469V65.6719H50.0938V62.625H47.0469V61.1016C47.0469 60.2625 47.7298 59.5781 48.5703 59.5781Z" fill="white"/>
<path d="M91.4297 56.5312H89.9062V59.5781H91.4297C92.2702 59.5781 92.9531 60.2625 92.9531 61.1016V62.625H89.9062V65.6719H92.9531V68.7188H89.9062V71.7656H92.9531V74.8125H89.9062V87H94.4766C95.3186 87 96 86.3186 96 85.4766V61.1016C96 58.5814 93.9499 56.5312 91.4297 56.5312Z" fill="white"/>
<path d="M82.2891 41.2969H80.6641V36.5234C80.6641 35.6814 79.9827 35 79.1406 35H60.8594C60.0173 35 59.3359 35.6814 59.3359 36.5234V41.2969H57.7109C55.1908 41.2969 53.1406 43.347 53.1406 45.8672C53.1406 52.6503 53.1406 77.6776 53.1406 87C54.8372 87 63.7292 87 65.4297 87C65.4297 86.3529 65.4297 81.5337 65.4297 80.9062H74.5703C74.5703 81.5533 74.5703 86.3725 74.5703 87C76.2669 87 85.1589 87 86.8594 87C86.8594 82.301 86.8594 50.6838 86.8594 45.8672C86.8594 43.347 84.8092 41.2969 82.2891 41.2969ZM68.4766 71.7656H62.3828V68.7188H68.4766V71.7656ZM68.4766 65.6719H62.3828V62.625H68.4766V65.6719ZM68.4766 59.5781H62.3828V56.5312H68.4766V59.5781ZM77.6172 71.7656H71.5234V68.7188H77.6172V71.7656ZM77.6172 65.6719H71.5234V62.625H77.6172V65.6719ZM77.6172 59.5781H71.5234V56.5312H77.6172V59.5781ZM77.6172 42.8203V53.4844H62.3828V42.8203V38.0469H77.6172V42.8203Z" fill="white"/>
</g>
<defs>
<filter id="filter0_d_1_6424" x="0" y="0" width="141" height="141" filterUnits="userSpaceOnUse" color-interpolation-filters="sRGB">
<feFlood flood-opacity="0" result="BackgroundImageFix"/>
<feColorMatrix in="SourceAlpha" type="matrix" values="0 0 0 0 0 0 0 0 0 0 0 0 0 0 0 0 0 0 127 0" result="hardAlpha"/>
<feOffset dy="10"/>
<feGaussianBlur stdDeviation="12"/>
<feComposite in2="hardAlpha" operator="out"/>
<feColorMatrix type="matrix" values="0 0 0 0 0.156863 0 0 0 0 0.568627 0 0 0 0 0.8 0 0 0 0.5 0"/>
<feBlend mode="normal" in2="BackgroundImageFix" result="effect1_dropShadow_1_6424"/>
<feBlend mode="normal" in="SourceGraphic" in2="effect1_dropShadow_1_6424" result="shape"/>
</filter>
<linearGradient id="paint0_linear_1_6424" x1="24" y1="14" x2="117" y2="107" gradientUnits="userSpaceOnUse">
<stop stop-color="#4EBEFF"/>
<stop offset="1" stop-color="#0679BB"/>
</linearGradient>
<clipPath id="clip0_1_6424">
<rect width="52" height="52" fill="white" transform="translate(44 35)"/>
</clipPath>
</defs>
</svg>
