<svg width="28" height="28" viewBox="0 0 28 28" fill="none" xmlns="http://www.w3.org/2000/svg">
<circle cx="14" cy="14" r="14" fill="white"/>
<path fill-rule="evenodd" clip-rule="evenodd" d="M19.8043 17.842L18.8268 16.8645C18.3384 16.3761 17.5468 16.3761 17.0593 16.8645L16.2909 17.6328C16.1193 17.8045 15.8593 17.862 15.6376 17.7645C14.5243 17.277 13.4243 16.5378 12.4434 15.557C11.4668 14.5803 10.7301 13.4853 10.2418 12.3761C10.1401 12.147 10.1993 11.8778 10.3768 11.7003L11.0651 11.012C11.6243 10.4528 11.6243 9.66197 11.1359 9.17363L10.1584 8.19613C9.5076 7.5453 8.4526 7.5453 7.80177 8.19613L7.25844 8.73863C6.64094 9.35613 6.38344 10.247 6.5501 11.1303C6.96177 13.3078 8.22677 15.692 10.2676 17.7328C12.3084 19.7736 14.6926 21.0386 16.8701 21.4503C17.7534 21.617 18.6443 21.3595 19.2618 20.742L19.8043 20.1995C20.4551 19.5486 20.4551 18.4936 19.8043 17.842V17.842Z" stroke="#E57709" stroke-width="1.5" stroke-linecap="round" stroke-linejoin="round"/>
<path d="M14.8335 9.82599C15.6927 9.81433 16.556 10.1327 17.2118 10.7885" stroke="#E57709" stroke-width="1.5" stroke-linecap="round" stroke-linejoin="round"/>
<path d="M19.5685 8.43188C18.261 7.12438 16.5468 6.47021 14.8335 6.47021" stroke="#E57709" stroke-width="1.5" stroke-linecap="round" stroke-linejoin="round"/>
<path d="M18.1744 13.1669C18.1861 12.3077 17.8677 11.4444 17.2119 10.7886" stroke="#E57709" stroke-width="1.5" stroke-linecap="round" stroke-linejoin="round"/>
<path d="M19.5684 8.43164C20.8759 9.73914 21.53 11.4533 21.53 13.1666" stroke="#E57709" stroke-width="1.5" stroke-linecap="round" stroke-linejoin="round"/>
</svg>
