<svg width="24" height="23" viewBox="0 0 24 23" fill="none" xmlns="http://www.w3.org/2000/svg">
<path d="M8.75 17.6121V22.2501C8.75 22.5741 8.958 22.8611 9.266 22.9631C9.343 22.9881 9.422 23.0001 9.5 23.0001C9.734 23.0001 9.96 22.8901 10.104 22.6941L12.817 19.0021L8.75 17.6121Z" fill="white"/>
<path d="M23.685 0.138844C23.455 -0.0241555 23.153 -0.0461555 22.903 0.0848445L0.403045 11.8348C0.137044 11.9738 -0.0199555 12.2578 0.00204448 12.5568C0.0250445 12.8568 0.224045 13.1128 0.507045 13.2098L6.76205 15.3478L20.083 3.95784L9.77505 16.3768L20.258 19.9598C20.336 19.9858 20.418 19.9998 20.5 19.9998C20.636 19.9998 20.771 19.9628 20.89 19.8908C21.08 19.7748 21.209 19.5798 21.242 19.3608L23.992 0.860844C24.033 0.580845 23.915 0.302844 23.685 0.138844Z" fill="white"/>
</svg>
