<svg width="100" height="100" viewBox="0 0 100 100" fill="none" xmlns="http://www.w3.org/2000/svg">
<path fill-rule="evenodd" clip-rule="evenodd" d="M62.4999 0.000488281H85.0073C93.2745 0.000488281 99.9998 6.70976 99.9998 14.9556V47.4423C99.9998 55.6881 93.2745 62.3966 85.0081 62.3966H69.467C69.1794 65.5529 67.9343 67.9691 65.7546 69.5934C63.6985 71.1246 60.8268 71.9005 57.2188 71.9005C56.3399 71.9005 55.6144 71.268 55.4946 70.3968C55.3679 69.4744 55.9447 68.5901 56.8366 68.3407C58.4967 67.876 59.4184 66.653 59.6534 64.6015C59.7472 63.789 59.7098 63.0016 59.645 62.3966H43.312C43.0724 62.3966 42.8306 62.3897 42.588 62.3783C40.4052 66.8178 36.5432 70.2892 31.8359 71.9585V74.6578L37.2291 76.4682C37.6083 76.5956 37.9073 76.8672 38.0759 77.2098C41.0018 78.2207 43.6072 80.1204 45.655 82.7541C46.1509 83.3927 46.0357 84.3128 45.3971 84.8094C45.1301 85.017 44.8134 85.1177 44.4991 85.1177C44.0627 85.1177 43.6301 84.9231 43.3417 84.5523C41.9135 82.7144 40.1702 81.3121 38.2285 80.4225V86.5894C38.2285 87.0593 38.0035 87.4995 37.6235 87.7757L35.3713 89.4084V92.4167C35.3713 92.8859 35.147 93.3261 34.7678 93.6015L29.9949 97.0706H46.8749V95.235C46.8749 93.2994 46.5804 91.4096 45.9998 89.6167C45.7503 88.8469 46.1722 88.0206 46.942 87.7712C47.7118 87.5217 48.5373 87.9436 48.7868 88.7134C49.462 90.7985 49.8046 92.9927 49.8046 95.235V98.5354C49.8046 99.3449 49.1485 100 48.3397 100H2.63671C1.828 100 1.17187 99.3449 1.17187 98.5354V95.235C1.17187 86.8663 5.94863 79.6062 12.8998 77.2106C13.0691 76.8672 13.3682 76.5956 13.7466 76.4682L19.1406 74.6578V71.9684C16.4924 71.0354 14.0655 69.5141 12.0224 67.4694C8.87984 64.3291 6.97096 60.281 6.53914 55.9139C2.37808 56.6639 0 52.2541 0 47.6566C0 44.6072 0.989531 42.2741 2.71911 41.0725C2.31323 40.0616 2.16751 39.0812 2.14996 38.2328C2.11715 36.5887 2.55432 35.2299 2.83737 34.5272C2.54058 32.7397 2.05612 26.8475 7.28148 21.8312C7.86513 21.2704 8.7921 21.2895 9.35286 21.8732C9.91285 22.4568 9.89378 23.3845 9.31013 23.9445C4.41512 28.6442 5.76934 34.2839 5.78383 34.3403C5.87157 34.6875 5.82961 35.0537 5.66558 35.3718C5.42296 35.854 3.44543 40.1585 8.2672 42.976C8.48387 42.886 8.95994 42.5221 9.50621 41.4982C11.4639 37.8254 16.4482 35.6778 22.5158 35.899C29.7546 36.1584 31.4559 33.1349 32.0144 32.1408C32.302 31.6288 32.8666 31.3374 33.451 31.4023C34.0339 31.4656 34.5229 31.8722 34.6931 32.4337C35.546 35.2497 36.4829 36.1157 37.5678 37.1182L37.5683 37.1186C38.6615 38.1286 39.901 39.2739 40.824 42.1192C40.9408 42.4793 41.1498 42.9394 41.4809 43.0935C41.7739 43.2293 42.1455 43.1385 42.295 43.0912C42.6376 42.8723 43.9056 42.0071 44.8424 40.6643C46.1806 38.7448 46.2501 36.7733 45.053 34.6356C44.9187 34.396 44.8546 34.1236 44.8676 33.8498C45.0996 29.0043 43.7751 25.4864 40.9309 23.3945C38.8938 21.896 36.7674 21.6816 36.6945 21.6742L36.6927 21.674C36.283 21.6435 35.9061 21.4421 35.6521 21.1201C35.5491 20.9958 33.847 19.0076 29.7164 18.2507C29.5883 18.2446 29.4647 18.2248 29.3479 18.1882C26.9699 17.8082 23.8342 17.8387 19.7952 18.8115C17.6796 19.3211 15.7638 19.975 14.1006 20.7539C13.3674 21.0972 12.4954 20.7822 12.1528 20.049C11.8095 19.3166 12.1246 18.4445 12.8578 18.1012C14.6988 17.2383 16.8022 16.5196 19.1085 15.9634C22.7722 15.0807 25.8186 14.9075 28.3203 15.1257V14.9556C28.3203 6.70976 35.0456 0.000488281 43.3127 0.000488281H56.2499C57.0586 0.000488281 57.7147 0.656615 57.7147 1.46533C57.7147 2.27481 57.0586 2.93017 56.2499 2.93017H43.3127C36.6607 2.93017 31.2499 8.3249 31.2499 14.9556V15.6003C34.7213 16.4464 36.7019 18.0363 37.5175 18.8344C38.5223 19.0083 40.6219 19.5302 42.6673 21.0347C45.1522 22.8627 48.0346 26.5164 47.8103 33.5797C49.3255 36.5376 48.947 39.056 48.0575 40.9436C49.8961 42.1009 50.9765 44.5011 50.9765 47.6566C50.9765 52.1793 48.6609 56.6769 44.4358 55.9139C44.3137 57.1354 44.0742 58.3233 43.7316 59.4669H60.8885C61.5615 59.4669 62.1482 59.9262 62.3107 60.5793C62.8104 62.598 62.9637 66.0084 61.3631 68.4833C65.9728 67.2123 66.6014 63.705 66.6014 60.9318C66.6014 60.1231 67.2576 59.4669 68.0663 59.4669H85.0073C91.6586 59.4669 97.0701 54.0722 97.0701 47.4423V14.9556C97.0701 8.3249 91.6586 2.93017 85.0073 2.93017H62.4999C61.6912 2.93017 61.035 2.27481 61.035 1.46533C61.035 0.656615 61.6912 0.000488281 62.4999 0.000488281ZM44.5312 45.1016V52.9118C46.9214 53.8448 48.0468 50.2613 48.0468 47.6566C48.0468 45.9438 47.6035 44.0678 46.4156 43.3819C45.7412 44.1349 45.0515 44.7132 44.5312 45.1016ZM4.30678 43.5536C3.30657 44.3493 2.92968 46.0919 2.92968 47.6566C2.92968 50.2613 4.04891 53.8471 6.4453 52.9118V45.2976C5.57326 44.7521 4.87136 44.1624 4.30678 43.5536ZM19.0498 77.7782L15.6776 78.9104V85.8425L17.9298 87.4759C18.3097 87.7513 18.5348 88.1923 18.5348 88.6615V91.6705L23.1483 95.0236L19.0498 77.7782ZM28.5491 79.3209H22.4273L25.4882 92.1992L28.5491 79.3209ZM12.7479 80.4202C7.57445 82.7754 4.10155 88.5822 4.10155 95.235V97.0706H20.9816L16.2086 93.6015C15.8294 93.3261 15.6051 92.8851 15.6051 92.4167V89.4084L13.3529 87.775C12.973 87.4995 12.7479 87.0586 12.7479 86.5894V80.4202ZM35.2989 85.8425V78.9104L31.9267 77.7782L27.8282 95.0236L32.4416 91.6705V88.6615C32.4416 88.1923 32.6667 87.7513 33.0467 87.4759L35.2989 85.8425ZM22.0703 76.3912H28.9062V72.739C26.6487 73.1502 24.3263 73.1487 22.0703 72.742V76.3912ZM9.37498 54.0043C9.37498 58.3103 11.0512 62.3569 14.0938 65.398C24.2134 75.5237 41.6015 68.2651 41.6015 54.0043V46.0858C41.1933 46.0621 40.7516 45.9751 40.3052 45.7775C39.5728 45.4533 38.5856 44.7125 38.0378 43.0241C37.3506 40.906 36.5696 40.1841 35.5812 39.2705L35.5804 39.2697C34.6984 38.4556 33.7318 37.5622 32.8552 35.7846C30.5465 37.9727 27.0477 38.9942 22.4098 38.8272C17.5476 38.6509 13.4964 40.2401 12.091 42.8761C11.1915 44.5645 10.2135 45.3518 9.37498 45.6936V54.0043ZM55.9226 18.4453C53.5262 18.4453 51.5617 20.2825 51.4503 22.6277C51.3938 23.8172 51.8218 24.9333 52.5687 25.7695C51.8218 26.6057 51.3938 27.7219 51.4503 28.9113C51.5281 30.5524 52.5138 31.9455 53.9207 32.6337C53.5995 33.2479 53.4324 33.9505 53.4347 34.718C53.4408 36.5361 54.6165 38.0902 56.2568 38.6891C55.9997 39.2247 55.8585 39.8175 55.8448 40.4538C55.8196 41.5883 56.2507 42.6679 57.0586 43.4934C57.8788 44.3318 59.0179 44.8125 60.1836 44.8125H80.9356C84.4421 44.8125 87.2939 41.9599 87.2939 38.4534V28.4604C87.2939 25.1401 83.937 22.0891 80.31 19.2861C78.4965 17.8853 77.0904 16.026 76.2443 13.9089L73.8006 7.79849C72.9906 5.69644 70.1805 6.42325 69.2535 6.66302L69.2527 6.66323C68.2105 6.93331 67.3454 7.60623 66.8151 8.55914C66.0003 10.0247 65.9774 12.0267 66.7457 14.5093L67.5605 17.6549C65.6364 18.2149 63.1614 18.395 61.3731 18.4461H55.9226V18.4453ZM61.4341 21.375C63.5162 21.317 66.4817 21.0912 68.7835 20.3435C70.0759 19.9239 70.8221 18.5659 70.4818 17.2521L69.5731 13.741L69.5673 13.7194C69.5639 13.7071 69.5603 13.6949 69.5567 13.6828L69.5533 13.6716C69.1428 12.3563 68.6767 9.83859 69.9874 9.49908C70.6268 9.33352 71.0128 9.28164 71.2333 9.26867L73.5236 14.9968C74.5643 17.5992 76.2908 19.8842 78.5178 21.6046C80.117 22.8398 84.3643 26.122 84.3643 28.4604V38.4542C84.3643 40.3447 82.8262 41.8836 80.9356 41.8836H60.1836C59.4344 41.8836 58.757 41.2717 58.7737 40.5187V40.5185C58.7791 40.2727 58.7954 39.5237 60.0799 39.0523C60.7917 38.7898 61.2113 38.0582 61.0786 37.3128C60.9451 36.5659 60.2981 36.0242 59.5397 36.0242H57.7537C57.0159 36.0242 56.3644 35.4093 56.3644 34.7081C56.3644 34.0039 56.7901 33.093 57.7987 33.093L59.9189 33.0945C60.7284 33.0945 61.3838 32.4384 61.3838 31.6297C61.3838 30.8202 60.7284 30.1648 59.9189 30.1648H55.9226C55.107 30.1648 54.4135 29.5407 54.3769 28.7732C54.3418 28.0377 54.8583 27.387 55.5778 27.258C55.7264 27.2314 55.9175 27.2321 56.6798 27.235C57.2288 27.2371 58.0741 27.2402 59.4131 27.2351C60.2226 27.2351 60.8779 26.579 60.8779 25.7703C60.8779 24.9608 60.2226 24.3054 59.4131 24.3054H55.8402C54.9896 24.3054 54.338 23.5898 54.3769 22.7674C54.4135 21.9998 55.107 21.3758 55.9226 21.3758H61.3937C61.4074 21.375 61.4211 21.375 61.4341 21.375ZM20.2774 49.9241C20.4971 50.0424 20.7344 50.0981 20.9678 50.0981C21.4859 50.0981 21.9886 49.8227 22.2541 49.3359C22.6425 48.6264 22.3823 47.7368 21.672 47.3484C21.5507 47.2813 18.6546 45.7371 14.8529 47.0173C14.0853 47.2752 13.6734 48.106 13.9312 48.8728C14.1899 49.6396 15.0207 50.0508 15.7875 49.7937C18.3151 48.9422 20.1759 49.8723 20.2774 49.9241ZM33.9569 56.5296C33.2069 56.2245 32.3554 56.5785 32.051 57.3284C31.9915 57.4658 30.5404 60.7022 25.6637 60.7022C20.7313 60.7022 18.9712 57.4086 18.8857 57.2415C18.5272 56.5205 17.6544 56.2237 16.9311 56.5769C16.204 56.9325 15.9027 57.8091 16.2574 58.5362C16.3589 58.7437 18.8239 63.6318 25.6637 63.6318C32.5736 63.6318 34.6733 58.6567 34.7595 58.4446C35.0639 57.6954 34.7061 56.8341 33.9569 56.5296ZM29.3045 47.3484C29.4258 47.2813 32.3211 45.7371 36.1244 47.0173C36.8912 47.2752 37.3031 48.106 37.0453 48.8728C36.7874 49.6396 35.9566 50.0508 35.1898 49.7937C32.6446 48.9369 30.7754 49.8852 30.6976 49.9257C30.4748 50.047 30.236 50.1042 30.0003 50.1042C29.483 50.1042 28.9825 49.8272 28.7155 49.3397C28.3272 48.6302 28.5949 47.736 29.3045 47.3484Z" fill="url(#paint0_linear_1_248)"/>
<defs>
<linearGradient id="paint0_linear_1_248" x1="0" y1="50.0005" x2="100" y2="50.0005" gradientUnits="userSpaceOnUse">
<stop stop-color="#FC466B"/>
<stop offset="1" stop-color="#3F5EFB"/>
</linearGradient>
</defs>
</svg>
