<svg width="100" height="100" viewBox="0 0 100 100" fill="none" xmlns="http://www.w3.org/2000/svg">
<path fill-rule="evenodd" clip-rule="evenodd" d="M61.2527 70.233L75.5777 76.368C79.0004 77.834 81.2123 81.1871 81.2125 84.9105V98.5352C81.2125 99.3443 80.5568 100 79.7476 100C78.9385 100 78.2828 99.3443 78.2828 98.5352V84.9104C78.2828 82.3607 76.7683 80.0646 74.4246 79.0609L65.556 75.2629V87.8537C68.2486 88.5131 70.2529 90.9453 70.2529 93.8381C70.2529 97.2359 67.4888 100 64.0912 100C60.6933 100 57.9293 97.2357 57.9293 93.8381C57.9293 90.9451 59.9338 88.5129 62.6263 87.8537V76.2217L52.5498 82.9395C51.7754 83.4557 50.8877 83.7139 50.0002 83.7139C49.1125 83.7139 48.225 83.4559 47.4506 82.9397L37.374 76.2219V84.5451H42.1717C44.7058 84.5451 46.7677 86.6068 46.7677 89.1412V95.4037C46.7677 97.9379 44.706 99.9998 42.1717 99.9998C41.3625 99.9998 40.7068 99.3441 40.7068 98.535C40.7068 97.7258 41.3625 97.0701 42.1717 97.0701C43.0906 97.0701 43.8381 96.3227 43.8381 95.4037V89.1412C43.8381 88.2223 43.0906 87.4748 42.1717 87.4748H29.6465C28.7275 87.4748 27.9801 88.2223 27.9801 89.1412V95.4037C27.9801 96.3227 28.7275 97.0701 29.6465 97.0701C30.4556 97.0701 31.1113 97.7258 31.1113 98.535C31.1113 99.3441 30.4556 99.9998 29.6465 99.9998C27.1123 99.9998 25.0504 97.9381 25.0504 95.4037V89.1412C25.0504 86.607 27.1121 84.5451 29.6465 84.5451H34.4439V75.2631L25.5756 79.0611C23.2316 80.0647 21.7172 82.3607 21.7172 84.9105V98.5352C21.7172 99.3443 21.0615 100 20.2523 100C19.4431 100 18.7875 99.3443 18.7875 98.5352V84.9105C18.7875 81.1871 20.9994 77.834 24.4222 76.368L38.747 70.233C39.9375 69.7232 40.7066 68.557 40.7066 67.2619V61.5234C39.2906 60.709 37.9724 59.7027 36.7863 58.5166C33.6043 55.3346 31.7113 51.2072 31.3693 46.768H30.6529C27.7976 46.768 25.349 44.6465 25.0779 41.9383C24.926 40.4207 25.4224 38.9053 26.44 37.7807C27.4584 36.6555 28.9123 36.01 30.4295 36.01H32.7777C33.6967 36.01 34.4441 35.2625 34.4441 34.3436C34.4441 32.726 35.6613 31.3549 37.2754 31.1477C51.5289 29.3184 61.5748 22.2625 61.6746 22.1914C62.3332 21.7227 63.2478 21.8758 63.7172 22.534C64.1867 23.1922 64.0345 24.1061 63.3765 24.576C63.265 24.6559 62.4896 25.2027 61.141 26.0023C63.7648 27.3883 65.5558 30.1441 65.5558 33.3104V34.3438C65.5558 35.2627 66.3033 36.0102 67.2222 36.0102H69.347C69.7248 36.0102 70.0949 36.0482 70.4543 36.1189V32.7779C70.4543 21.4992 61.2785 12.3236 50 12.3236C44.791 12.3236 39.8289 14.2824 36.0277 17.8396C32.2443 21.3799 29.9603 26.1656 29.597 31.3154C29.54 32.1225 28.8361 32.7291 28.0326 32.6734C27.2256 32.6164 26.6176 31.916 26.6746 31.109C27.0902 25.2193 29.701 19.7473 34.026 15.7002C34.6599 15.1068 35.323 14.5537 36.0103 14.0395C36.0185 6.33203 42.2908 0 50 0C57.7131 0 63.9885 6.33867 63.99 14.0516C69.6892 18.3201 73.384 25.1256 73.384 32.7777V37.4748C73.384 37.5371 73.3789 37.5982 73.3713 37.6586C74.226 38.5025 74.7988 39.61 74.922 40.8391C75.074 42.3568 74.5777 43.8723 73.5601 44.9971C72.5418 46.1223 71.0879 46.7678 69.5707 46.7678H68.6302C68.1388 53.0742 64.5027 58.5121 59.2931 61.5109V67.2619C59.2931 68.557 60.0623 69.7232 61.2527 70.233ZM50 2.92969C44.5525 2.92969 40.0156 6.88926 39.108 12.0809C42.4345 10.3273 46.1582 9.39395 50 9.39395C53.9314 9.39395 57.6386 10.3707 60.8939 12.092C59.991 6.89492 55.4513 2.92969 50 2.92969ZM33.8138 44.267C34.0886 44.542 34.2429 44.9145 34.2429 45.3029C34.2429 49.5119 35.882 53.4689 38.8578 56.4451C41.834 59.4213 45.791 61.0604 50 61.0604C58.6886 61.0604 65.7572 53.9916 65.7572 45.3031C65.7572 44.4941 66.4129 43.8383 67.2218 43.8383L69.5703 43.8381C70.2613 43.8381 70.9236 43.5439 71.3875 43.0312C71.8574 42.5117 72.0773 41.8369 72.0066 41.1311C71.8836 39.9021 70.7152 38.9395 69.3469 38.9395H67.222C64.6879 38.9395 62.6259 36.8777 62.6259 34.3434V33.31C62.6259 30.4354 60.3385 28.0848 57.4879 27.9834C52.9463 30.2418 46.0361 32.9768 37.6482 34.0535C37.4892 34.0736 37.3738 34.1932 37.3738 34.3371C37.3738 36.8775 35.3121 38.9395 32.7777 38.9395H30.4295C29.7386 38.9395 29.0763 39.2336 28.6123 39.7463C28.1424 40.2658 27.9224 40.9406 27.9931 41.6465C28.1162 42.8756 29.2844 43.8383 30.6527 43.8383L32.7779 43.8381C33.1666 43.8381 33.5392 43.9924 33.8138 44.267ZM49.0754 80.502C49.6371 80.8764 50.3631 80.8762 50.9244 80.5018L61.432 73.4969L60.0992 72.9262C57.8299 71.9541 56.3634 69.7309 56.3634 67.2619V62.873C54.3763 63.5949 52.2336 63.99 50.0002 63.99C47.7957 63.99 45.65 63.6104 43.6365 62.883V67.2619C43.6365 69.7309 42.1701 71.9541 39.9008 72.9262L38.5679 73.4969L49.0754 80.502ZM64.0908 97.0703C65.873 97.0703 67.3228 95.6203 67.3228 93.8381C67.3228 92.0559 65.873 90.6061 64.0908 90.6061C62.3086 90.6061 60.8586 92.0559 60.8586 93.8381C60.8586 95.6203 62.3086 97.0703 64.0908 97.0703ZM40.7068 40.6061C40.7068 39.7969 41.3624 39.1412 42.1716 39.1412C42.9808 39.1412 43.6365 39.7971 43.6365 40.6061V42.1717C43.6365 42.9809 42.9808 43.6366 42.1716 43.6366C41.3624 43.6366 40.7068 42.9809 40.7068 42.1717V40.6061ZM57.8284 43.6366C58.6376 43.6366 59.2932 42.9809 59.2932 42.1717V40.6061C59.2932 39.7969 58.6376 39.1412 57.8284 39.1412C57.0192 39.1412 56.3635 39.7969 56.3635 40.6061V42.1717C56.3635 42.9809 57.0192 43.6366 57.8284 43.6366ZM53.7652 48.8695C54.3896 48.3552 55.3125 48.4439 55.8273 49.0681C56.342 49.6925 56.2531 50.6156 55.6287 51.1302C54.1422 52.3556 52.1429 53.0304 50 53.0304C47.857 53.0304 45.8578 52.3556 44.3713 51.1302C43.7468 50.6156 43.658 49.6923 44.1726 49.0681C44.6871 48.4437 45.6103 48.3546 46.2347 48.8695C47.184 49.6519 48.5564 50.1007 50 50.1007C51.4435 50.1007 52.816 49.6519 53.7652 48.8695ZM96.8572 71.3814L90.6754 69.3209C90.634 69.307 90.6062 69.2683 90.6062 69.225V65.1969C93.4412 63.2355 95.3031 59.9633 95.3031 56.2627V51.5658C95.3031 47.3049 91.8365 43.8383 87.5758 43.8383H81.3133C77.0525 43.8383 73.5859 47.3049 73.5859 51.5658V56.2627C73.5859 59.9633 75.448 63.2357 78.283 65.197V69.225C78.283 69.2685 78.2551 69.307 78.2141 69.3207L76.1533 70.0076C75.3857 70.2635 74.9709 71.0931 75.2268 71.8603C75.4314 72.4744 76.0029 72.8625 76.6162 72.8625C76.7697 72.8625 76.926 72.8381 77.0795 72.7869L78.3988 72.347L82.6264 75.5176C83.1617 75.9191 83.8031 76.1197 84.4449 76.1197C85.0863 76.1197 85.7277 75.9191 86.2631 75.5176L89.2426 73.2832V80.0888C87.4246 80.7019 86.1113 82.4221 86.1113 84.4443C86.1113 86.9787 88.1732 89.0404 90.7074 89.0404C93.2416 89.0404 95.3035 86.9785 95.3035 84.4443C95.3035 82.4222 93.9902 80.7021 92.1723 80.0888V72.9078L95.9314 74.1607C96.6129 74.3879 97.0709 75.023 97.0709 75.7416V87.5756C97.0709 88.3847 97.7266 89.0404 98.5357 89.0404C99.3449 89.0404 100.001 88.3847 100.001 87.5756V75.7416C100 73.7599 98.7369 72.0078 96.8572 71.3814ZM76.5152 56.2625V51.5656C76.5152 48.9199 78.6676 46.7677 81.3129 46.7677H87.5754C90.2209 46.7677 92.373 48.9201 92.373 51.5656V56.2625C92.373 60.6345 88.816 64.1916 84.4439 64.1916C80.0719 64.1916 76.5152 60.6345 76.5152 56.2625ZM84.5045 73.174C84.4689 73.2004 84.4191 73.2006 84.3838 73.1738L80.9008 70.5617C81.1008 70.1549 81.2121 69.7002 81.2121 69.2248V66.6299C82.2334 66.949 83.3189 67.1211 84.4441 67.1211C85.5693 67.1211 86.6549 66.9488 87.6764 66.6299V69.2248C87.6764 69.7002 87.7879 70.1549 87.9877 70.5617L84.5045 73.174ZM90.7068 86.1107C89.7879 86.1107 89.0404 85.3633 89.0404 84.4443C89.0404 83.5254 89.7879 82.7779 90.7068 82.7779C91.6258 82.7779 92.3732 83.5254 92.3732 84.4443C92.3732 85.3633 91.6258 86.1107 90.7068 86.1107ZM15.5559 76.1198C14.9141 76.1198 14.2727 75.9192 13.7373 75.5174L12.3236 74.4573V79.8481H13.99C15.6611 79.8481 17.0207 81.2077 17.0207 82.8788V86.01C17.0207 87.6811 15.6611 89.0405 13.99 89.0405C13.1809 89.0405 12.5252 88.3848 12.5252 87.5756C12.5252 86.7665 13.1809 86.1108 13.99 86.1108C14.0459 86.1108 14.091 86.0655 14.091 86.01V82.8788C14.091 82.8229 14.0457 82.7778 13.99 82.7778H7.72754C7.67187 82.7778 7.62676 82.8231 7.62676 82.8788V86.01C7.62676 86.0657 7.67207 86.1108 7.72754 86.1108C8.53672 86.1108 9.19238 86.7665 9.19238 87.5756C9.19238 88.3848 8.53672 89.0405 7.72754 89.0405C6.05644 89.0405 4.69707 87.6811 4.69707 86.01V82.8788C4.69707 81.2077 6.05644 79.8481 7.72754 79.8481H9.39394V72.3858L4.06934 74.1608C3.38769 74.3879 2.92969 75.0231 2.92969 75.7416V87.5756C2.92969 88.3848 2.27402 89.0405 1.46484 89.0405C0.655664 89.0405 0 88.3848 0 87.5756V75.7416C0 73.76 1.26309 72.0079 3.14297 71.3813L9.3248 69.3206C9.36601 69.3069 9.39394 69.2684 9.39394 69.2249V65.1967C6.55898 63.2354 4.69707 59.9631 4.69707 56.2625V50C4.69707 46.6022 7.46113 43.8381 10.8588 43.8381H20.2529C23.6508 43.8381 26.4148 46.6024 26.4148 50V56.2625C26.4148 59.9631 24.5527 63.2356 21.7178 65.1969V69.2249C21.7178 69.2682 21.7455 69.3069 21.7869 69.3207L23.8473 70.0075C24.6148 70.2631 25.0297 71.0928 24.7738 71.8602C24.5691 72.4743 23.9977 72.8624 23.3844 72.8624C23.2309 72.8624 23.0746 72.8381 22.9211 72.7868L21.6018 72.3471L17.3742 75.5176C16.8387 75.9192 16.1973 76.1198 15.5559 76.1198ZM20.2527 46.7678H10.8588C9.07656 46.7678 7.62676 48.2178 7.62695 50V51.7674L10.5459 49.578C11.635 48.7614 13.1453 48.7731 14.2182 49.6073C15.4914 50.5973 18.7865 52.7791 23.485 53.1709V50C23.485 48.2178 22.035 46.7678 20.2527 46.7678ZM7.62676 55.4293V56.2625C7.62676 60.6346 11.1836 64.1915 15.5557 64.1915C19.9277 64.1915 23.4848 60.6344 23.4848 56.2624V56.1092C18.1053 55.7346 14.2916 53.3752 12.4195 51.92C12.3713 51.8825 12.326 51.9045 12.3035 51.9215L7.62676 55.4293ZM18.7879 66.6301C17.7666 66.9493 16.6809 67.1213 15.5559 67.1213C14.4307 67.1213 13.3449 66.9493 12.3236 66.6299V69.2249C12.3236 69.7002 12.2123 70.1549 12.0123 70.5618L15.4953 73.1739C15.5307 73.2006 15.5807 73.2006 15.6162 73.1739L19.0992 70.562C18.8992 70.1551 18.7879 69.7004 18.7879 69.2251V66.6301Z" fill="url(#paint0_linear_1_207)"/>
<defs>
<linearGradient id="paint0_linear_1_207" x1="0" y1="50" x2="100.001" y2="50" gradientUnits="userSpaceOnUse">
<stop stop-color="#59C173"/>
<stop offset="0.5" stop-color="#A17FE0"/>
<stop offset="1" stop-color="#5D26C1"/>
</linearGradient>
</defs>
</svg>
