<svg width="98" height="100" viewBox="0 0 98 100" fill="none" xmlns="http://www.w3.org/2000/svg">
<path fill-rule="evenodd" clip-rule="evenodd" d="M49.4057 7.03207L50.693 5.80121C58.3162 -1.8095 70.8905 -2.05344 78.447 5.79457V5.79477C81.959 9.44299 83.8684 14.244 83.8231 19.3127C83.7778 24.3884 81.7758 29.1607 78.1862 32.7503L52.3092 58.6721C50.4521 60.5324 47.4406 60.5268 45.59 58.6651L19.8216 32.7476C16.2347 29.1609 14.2328 24.3886 14.1874 19.3131C14.1419 14.2443 16.0513 9.44358 19.5634 5.79516C27.1268 -2.06145 39.7022 -1.80149 47.3176 5.8016C47.4387 5.91762 48.5824 7.01078 48.6037 7.03109L48.6049 7.03226C48.8293 7.24671 49.1811 7.24671 49.4057 7.03207ZM50.2357 56.6022L60.7802 46.0393C64.7872 42.0253 62.1003 35.3335 56.4037 35.1644C53.4576 35.08 51.7911 36.6983 50.8422 37.6197C50.7802 37.6799 50.7213 37.7371 50.6652 37.7907C49.7346 38.6808 48.2768 38.681 47.3459 37.7909L47.35 37.7866C47.2068 37.6622 46.835 37.3042 46.7287 37.197L46.727 37.1987C45.2674 35.7396 43.2522 35.0029 41.1893 35.1904C35.7797 35.6843 33.271 42.1149 37.1778 46.0489L47.6676 56.5994C48.376 57.3119 49.5268 57.3123 50.2357 56.6022ZM65.6074 41.2038L68.2988 38.5079C72.7153 34.0837 72.8134 27.1263 68.522 22.6683C66.4241 20.4892 63.5738 19.273 60.4962 19.2439C55.6153 19.2026 52.8304 21.9044 51.3143 23.3753C51.2182 23.4685 51.1273 23.5567 51.0412 23.639C49.8996 24.731 48.1105 24.7308 46.969 23.6388L46.9758 23.6316C46.7797 23.4638 46.1455 22.8545 46.0053 22.7136L46.0035 22.7156C43.7934 20.5055 40.7446 19.2437 37.6239 19.2437C37.5872 19.2437 37.5506 19.2437 37.5139 19.2441C34.4364 19.2734 31.586 20.4896 29.4882 22.6689C25.1985 27.1246 25.2712 34.0685 29.6522 38.4798L32.3598 41.2032C32.509 36.4769 36.2543 32.6988 40.9229 32.2728C44.1615 31.9781 46.7414 33.1595 49.0051 35.3243C51.1351 33.287 53.507 32.148 56.49 32.2361C61.4394 32.3827 65.4697 36.2333 65.6074 41.2038ZM74.4864 32.3097L76.1136 30.6798C86.1301 20.6631 79.3854 3.0688 64.866 2.93111C57.9012 2.88012 53.9709 6.68877 51.8066 8.7861C51.6745 8.91414 51.5489 9.03581 51.4297 9.14983C50.0699 10.4498 47.9395 10.4504 46.5797 9.14964L46.5893 9.13968C46.3395 8.92679 45.434 8.05784 45.2584 7.88226L45.2565 7.88421C38.8657 1.49342 28.1612 1.08834 21.6737 7.82699C15.5533 14.1848 15.6529 24.4361 21.8958 30.679L23.5026 32.2951C22.9669 28.1773 24.2519 23.884 27.3774 20.6373C30.0257 17.8867 33.6155 16.3516 37.486 16.3148C37.5317 16.3145 37.5776 16.3143 37.6233 16.3143C43.7132 16.3143 47.2611 19.815 48.696 21.2309C48.8076 21.341 48.9065 21.4386 48.9928 21.5209C48.9998 21.5277 49.0102 21.5277 49.0164 21.522L49.9467 20.6326C52.7021 17.8832 56.4996 16.3141 60.3871 16.3141C60.4326 16.3141 60.4783 16.3145 60.524 16.3148C64.3947 16.3516 67.9843 17.8865 70.6325 20.6369V20.6371C73.7603 23.8859 75.037 28.1851 74.4864 32.3097ZM94.3449 42.8135C96.9818 43.7238 98.4386 46.675 97.5921 49.3916L94.2131 60.2443C93.3519 63.0081 91.5881 65.4708 89.2461 67.1794L84.1108 71.0262C83.4631 71.511 82.5453 71.3794 82.0602 70.7319C81.5752 70.0844 81.7071 69.1663 82.3545 68.6813L87.5045 64.8235C89.3568 63.472 90.7406 61.5403 91.4158 59.373L94.7955 48.5203C95.1758 47.2996 94.5449 45.9818 93.3892 45.5826C92.1281 45.1476 90.7867 45.8588 90.4017 47.0965L86.8414 58.529C86.7186 58.9234 86.5291 59.2894 86.2877 59.6169C86.0764 59.9038 85.826 60.1614 85.5391 60.3777C85.451 60.4441 85.3598 60.5066 85.2656 60.5652L85.2652 60.5653L84.3822 61.1138L79.9653 63.8575L73.3385 68.1555C73.0922 68.3153 72.8159 68.3917 72.5428 68.3917C72.0631 68.3917 71.593 68.1563 71.3126 67.7237C70.8723 67.045 71.0655 66.138 71.7444 65.6978L77.0081 62.2837C77.0162 62.276 77.0241 62.268 77.0321 62.2602C77.0415 62.251 77.051 62.2419 77.061 62.2333C78.0518 61.379 78.2907 59.9468 77.6291 58.8279C76.8883 57.5747 75.3022 57.1482 74.0178 57.8554L59.1044 66.0683C57.7417 66.8188 56.737 68.0483 56.2755 69.5305L54.881 74.0077C53.9572 76.9739 53.3828 80.0401 53.1679 83.1426H67.9679C68.2786 82.269 68.6772 81.4408 69.1587 80.6709C70.8014 78.044 72.8899 75.7713 75.3665 73.9163L76.8713 72.7889C77.5186 72.3038 78.4368 72.4352 78.9219 73.0829C79.4069 73.7301 79.2754 74.6485 78.628 75.1335L77.1227 76.2612C74.9366 77.8987 73.093 79.9047 71.6426 82.2243C71.3833 82.6387 71.1552 83.0764 70.9593 83.534C72.1975 84.1475 73.0532 85.4215 73.0532 86.8947V96.248C73.0532 98.317 71.37 100 69.301 100H51.2929C50.4316 100 49.6394 99.7054 49.0054 99.2156C48.3714 99.7054 47.5795 100 46.7181 100H41.132C40.3228 100 39.6672 99.3445 39.6672 98.5353C39.6672 97.7261 40.3228 97.0705 41.132 97.0705H46.7181C47.1638 97.0705 47.5406 96.6937 47.5406 96.248V92.7121H27.8875V96.248C27.8875 96.6937 28.2643 97.0705 28.71 97.0705H34.2963C35.1055 97.0705 35.7611 97.7261 35.7611 98.5353C35.7611 99.3445 35.1055 100 34.2963 100H28.71C26.6411 100 24.9579 98.317 24.9579 96.248V86.8947C24.9579 85.4217 25.8133 84.1477 27.0518 83.534C26.8559 83.0764 26.6276 82.6387 26.3684 82.2243C24.918 79.9047 23.0743 77.8987 20.8884 76.2612L8.74992 67.1681C6.42259 65.4706 4.65873 63.0075 3.79799 60.2443L0.417926 49.3916C-0.939685 45.0322 3.46108 41.0725 7.61321 43.025C8.68664 42.0996 10.0491 41.566 11.3345 41.609C14.2552 41.7092 16.5087 44.1676 16.3657 47.097L15.7849 59.0042L17.0913 59.8157C17.1479 58.9634 17.4003 58.1146 17.8598 57.3374C19.411 54.7128 22.7258 53.813 25.4065 55.2898L40.3199 63.5026C42.3488 64.6198 43.8451 66.4515 44.5328 68.6597L45.9273 73.1368C46.9547 76.436 47.5783 79.8491 47.7881 83.3004C48.2347 83.4336 48.6451 83.649 49.0052 83.9274C49.3654 83.6492 49.7759 83.4336 50.2226 83.3004C50.4324 79.8483 51.0558 76.4352 52.0831 73.1368L53.4777 68.6597C54.1654 66.4515 55.6617 64.6198 57.6906 63.5026L72.604 55.2898C75.2846 53.813 78.5995 54.713 80.1506 57.3374C80.6102 58.1146 80.8625 58.9634 80.9192 59.8157L82.2256 59.0042L81.6448 47.0972C81.4287 42.6715 86.5699 39.7234 90.3973 43.0252C91.6435 42.4394 93.0387 42.3623 94.3449 42.8135ZM13.4394 46.9547C13.5028 45.6525 12.513 44.5814 11.2339 44.5371C10.7968 44.5205 10.2958 44.6994 9.8466 45.0006C10.082 45.3791 10.2782 45.8138 10.4064 46.2254L13.0595 54.7445L13.4394 46.9547ZM10.4911 64.8126L22.6446 73.9167C25.121 75.7715 27.2094 78.0442 28.8516 80.6709C29.333 81.4408 29.7317 82.2688 30.0424 83.1426H44.8424C44.6277 80.0409 44.0531 76.9747 43.1293 74.0077L41.7348 69.5307C41.2732 68.0485 40.2687 66.819 38.9059 66.0685L23.9924 57.8556C22.7081 57.1482 21.1217 57.5753 20.3811 58.8281C19.7196 59.9472 19.9585 61.3794 20.9493 62.2335C20.9619 62.2446 20.9738 62.2562 20.9856 62.2678C20.9911 62.2732 20.9966 62.2786 21.0022 62.2839L26.2659 65.6979C26.9448 66.1382 27.1379 67.0452 26.6977 67.7239C26.2575 68.4026 25.3502 68.5962 24.6717 68.1557L24.6517 68.1427C24.0848 67.775 12.973 60.5653 12.7446 60.5653C11.9921 60.0976 11.4327 59.3751 11.1693 58.5296V58.5292V58.529L7.60891 47.0968C7.22005 45.8463 5.87103 45.1517 4.62162 45.5828C3.46577 45.982 2.83471 47.2998 3.21499 48.5205L6.59505 59.3732C7.26985 61.5403 8.65364 63.4722 10.4911 64.8126ZM27.8872 89.7824H47.5402V86.8949C47.5402 86.4492 47.1634 86.0725 46.7177 86.0725H28.7096C28.2639 86.0725 27.8872 86.4492 27.8872 86.8949V89.7824ZM69.3007 97.0707C69.7464 97.0707 70.1231 96.6939 70.1231 96.2482V92.7123H50.4699V96.2482C50.4699 96.6939 50.8466 97.0707 51.2925 97.0707H69.3007ZM70.1231 86.8949C70.1231 86.4492 69.7464 86.0725 69.3007 86.0725H51.2925C50.8466 86.0725 50.4699 86.4492 50.4699 86.8949V89.7824H70.1231V86.8949ZM84.9508 54.7445L87.6039 46.2254C87.735 45.8045 87.9332 45.3713 88.1637 45.0004C86.349 43.7836 84.4858 45.2088 84.5709 46.9545L84.9508 54.7445Z" fill="url(#paint0_linear_1_217)"/>
<defs>
<linearGradient id="paint0_linear_1_217" x1="0.166992" y1="50.0003" x2="97.833" y2="50.0003" gradientUnits="userSpaceOnUse">
<stop stop-color="#EE0979"/>
<stop offset="1" stop-color="#FF6A00"/>
</linearGradient>
</defs>
</svg>
