<svg width="100" height="98" viewBox="0 0 100 98" fill="none" xmlns="http://www.w3.org/2000/svg">
<path fill-rule="evenodd" clip-rule="evenodd" d="M96.1805 52.0918L92.0844 50.7797C91.5598 50.6115 91.1463 50.1928 90.9785 49.6594C90.1152 46.9146 88.8125 44.3379 87.1064 42.0004C86.3289 40.935 85.4643 39.9176 84.5197 38.949C85.124 36.298 85.4525 33.2979 85.41 30.7059C85.349 26.9979 84.608 24.823 83.1447 24.0566C82.3566 23.6434 79.9582 22.3879 66.9764 28.3305C66.6689 28.4711 66.3818 28.6443 66.116 28.8428C65.2408 28.6076 64.3463 28.39 63.4463 28.1947C63.3855 28.1815 63.3236 28.1691 63.2617 28.1567L63.2616 28.1566C63.2133 28.147 63.1649 28.1373 63.117 28.1271C64.1689 25.8291 64.7832 23.3332 64.8986 20.7566C64.9346 19.9535 64.3129 19.2734 63.5098 19.2377C62.7088 19.1979 62.0266 19.8232 61.9908 20.6264C61.8012 24.8629 60.0438 28.849 57.0426 31.8504C55.2494 33.6436 53.1498 34.9461 50.9121 35.7664C47.0314 35.2219 43.0787 35.2219 39.198 35.7664C36.9602 34.9461 34.8607 33.6436 33.0676 31.8504C29.8656 28.6484 28.1021 24.3912 28.1021 19.8629C28.1021 15.3344 29.8656 11.0773 33.0676 7.87539C36.2695 4.67324 40.527 2.90977 45.0551 2.90977C49.5832 2.90977 53.8406 4.67324 57.0426 7.87539C58.3293 9.16211 59.3926 10.6305 60.2029 12.2393C60.5645 12.9572 61.4396 13.2463 62.1574 12.8846C62.8754 12.5232 63.1643 11.648 62.8027 10.9303C61.8529 9.04375 60.6074 7.32363 59.101 5.81699C55.3492 2.06523 50.3609 -0.000976562 45.0553 -0.000976562C39.7496 -0.000976562 34.7613 2.06523 31.0096 5.81699C27.2578 9.56894 25.1916 14.557 25.1916 19.8627C25.1916 25.1684 27.2578 30.1566 31.0096 33.9084C32.0918 34.9906 33.2691 35.9213 34.5145 36.701L34.5156 36.7008C33.6107 36.9359 32.7127 37.2 31.8246 37.4969C31.0623 37.7518 30.651 38.5762 30.9059 39.3387C31.1605 40.101 31.9854 40.5123 32.7475 40.2576C40.6842 37.6043 49.4264 37.6043 57.3631 40.2576C57.5162 40.3088 57.6717 40.333 57.8246 40.333C58.4334 40.333 59.001 39.9478 59.2047 39.3387C59.4596 38.5764 59.0482 37.7518 58.2859 37.4969C57.3979 37.2 56.4998 36.9357 55.5949 36.7008L55.5961 36.701C56.8416 35.9213 58.0187 34.9906 59.101 33.9084C60.0584 32.951 60.9035 31.9055 61.6373 30.7943C62.0385 30.8723 62.4367 30.9539 62.8291 31.0391C63.3518 31.1525 63.8721 31.2744 64.3877 31.4023L64.3822 31.4238C64.3678 31.4799 64.3534 31.536 64.3414 31.593C63.6316 34.9611 63.6777 37.94 64.4783 40.4465C65.1979 42.6994 66.4965 44.5246 68.3377 45.8717C70.5078 47.4592 73.1277 48.1449 75.501 48.1449C77.2871 48.1449 78.9338 47.7562 80.1432 47.0713C81.5111 46.2965 82.6572 44.6639 83.5645 42.2127C83.9838 42.7021 84.3813 43.2035 84.7559 43.7168C86.2748 45.7977 87.4344 48.091 88.2023 50.5328C88.6533 51.967 89.7729 53.0955 91.1969 53.552L95.293 54.8641C96.3678 55.2084 97.0898 56.1977 97.0898 57.3262V64.1182C97.0898 65.2467 96.3678 66.2359 95.293 66.5803L88.6936 68.6941C87.6377 69.0326 86.7441 69.7582 86.1775 70.7375C83.5848 75.2184 79.5084 78.9264 74.0609 81.7586C73.4316 82.0861 72.9957 82.6719 72.8645 83.366L70.7508 94.558C70.6924 94.8664 70.4223 95.09 70.1084 95.09H63.2359C62.9221 95.09 62.652 94.8662 62.5936 94.558L61.4228 88.3727C61.1924 87.1557 60.051 86.3473 58.8225 86.5334C55.8621 86.9811 52.8117 87.2078 49.7564 87.2078C47.4834 87.2078 45.2395 87.0811 43.0865 86.8309C41.8961 86.6939 40.7871 87.5055 40.5646 88.6809L39.4521 94.558C39.3937 94.8664 39.1236 95.09 38.8098 95.09H31.9373C31.6234 95.09 31.3533 94.8662 31.2941 94.5533L29.259 83.9826C29.1279 83.3016 28.7002 82.7225 28.0848 82.3938C18.7988 77.4365 13.8906 69.1545 13.8906 58.4436C13.8906 53.0318 15.0746 48.2465 17.4096 44.2199C19.5885 40.4623 22.7709 37.3555 26.8684 34.9853C27.5641 34.5828 27.8018 33.6926 27.3994 32.9967C26.9971 32.301 26.1068 32.0637 25.4109 32.4656C17.4658 37.0617 12.6738 44.1523 11.3545 53.1582V53.158L11.2695 53.1504C11.1578 53.1403 11.046 53.1303 10.9346 53.1188C10.96 52.1471 10.7842 51.1666 10.4014 50.215C9.55703 48.1162 7.82266 46.6014 5.98262 46.3559C4.53262 46.1617 3.15273 46.7773 2.19512 48.0426C0.806641 49.8773 1.03301 51.3293 1.46719 52.2242C2.2002 53.7346 4.08437 54.8029 7.21113 55.4746C7.1252 55.6033 7.03066 55.7326 6.92715 55.8625C5.07969 58.1795 2.90313 58.6918 1.48984 58.74C0.6625 58.768 0 59.4322 0 60.2602V60.2672C0 61.0838 0.644336 61.7498 1.46016 61.7871C1.56465 61.792 1.67383 61.7945 1.7875 61.7945C3.57578 61.7945 6.4459 61.135 9.20332 57.6773C9.63867 57.1316 9.99336 56.5559 10.266 55.9609C10.5406 55.992 10.8045 56.0186 11.0572 56.042C11.0572 56.0414 11.0572 56.041 11.0574 56.0404C11.0078 56.8291 10.9803 57.6293 10.9803 58.4436C10.9803 64.5037 12.425 69.907 15.274 74.5041C17.901 78.7424 21.6621 82.2127 26.4566 84.8225L28.4352 95.099C28.7533 96.7803 30.2262 98.0006 31.9373 98.0006H38.8098C40.5209 98.0006 41.9937 96.7803 42.3119 95.099L43.3178 89.785C45.4068 90.0062 47.5697 90.1184 49.7562 90.1184C52.7562 90.1184 55.7527 89.9094 58.673 89.4969L59.7334 95.0994C60.0518 96.7807 61.5246 98.0008 63.2355 98.0008H70.108C71.8191 98.0008 73.292 96.7805 73.6104 95.0986L75.6684 84.202C81.4824 81.1275 85.8648 77.0889 88.6965 72.1951C88.9006 71.8424 89.2148 71.5836 89.5813 71.4662L96.1805 69.3523C98.465 68.6201 100 66.5168 100 64.1178V57.3258C100 54.927 98.465 52.8236 96.1805 52.0918ZM82.2809 34.7955C81.7207 39.5857 80.2182 43.6834 78.7084 44.5385C76.9924 45.5105 73.0305 45.6982 70.0559 43.5223C67.0777 41.3437 66.0865 37.4262 67.1891 32.193V32.1928C67.2998 31.6672 67.6732 31.2125 68.1879 30.977C75.4738 27.6418 79.6744 26.551 81.235 26.551C81.4705 26.551 81.6459 26.5758 81.7627 26.6215C82.2314 27.1211 82.8463 29.9611 82.2809 34.7955ZM4.08613 50.9533C3.93555 50.6428 4.29102 50.0969 4.51641 49.7988C4.87363 49.327 5.20273 49.2305 5.45137 49.2305C5.50391 49.2305 5.55293 49.2348 5.59785 49.2408C6.26699 49.3301 7.20449 50.0664 7.70117 51.301C7.81816 51.5916 7.97012 52.0731 8.00566 52.6734C5.99102 52.2561 4.42578 51.6543 4.08613 50.9533ZM82.5201 51.8541C81.7164 51.8541 81.0649 52.5057 81.0649 53.3094C81.0649 54.3283 80.236 55.1572 79.217 55.1572C78.1983 55.1572 77.3692 54.3283 77.3692 53.3094C77.3692 52.5055 76.7176 51.8541 75.9139 51.8541C75.1102 51.8541 74.4586 52.5057 74.4586 53.3094C74.4586 55.9332 76.5934 58.0678 79.217 58.0678C81.8407 58.0678 83.9754 55.933 83.9754 53.3094C83.9754 52.5053 83.3239 51.8541 82.5201 51.8541ZM46.4684 12.9869V18.1947C48.7004 19.0156 51.1377 20.1447 51.1377 23.6337C51.1377 26.7894 49.2393 28.5339 46.4684 28.9189V29.7912C46.4684 30.099 46.0836 30.3812 45.6986 30.3812C45.2625 30.3812 44.9545 30.099 44.9545 29.7912V28.9958C41.7732 28.9445 39.6182 27.2255 39.6182 25.9685C39.6182 25.3527 40.1568 24.506 40.7982 24.506C41.1147 24.506 41.4097 24.757 41.7917 25.082C42.4316 25.6264 43.3158 26.3786 44.9545 26.5072V20.4781C42.6455 19.6572 40.0799 18.7335 40.0799 15.4496C40.0799 12.2169 42.5172 10.9341 44.9545 10.6775V9.93355C44.9545 9.62573 45.2623 9.34351 45.6986 9.34351C46.0834 9.34351 46.4684 9.62573 46.4684 9.93355V10.6265C48.2129 10.6779 50.676 11.2166 50.676 12.4738C50.676 12.9613 50.3168 13.9361 49.5471 13.9361C49.3086 13.9361 49.0623 13.8129 48.7458 13.6545C48.2451 13.404 47.5685 13.0655 46.4684 12.9869ZM42.6455 15.1933C42.6455 16.6556 43.7486 17.1943 45.1084 17.7074V13.0382C43.6717 13.2177 42.6455 13.8591 42.6455 15.1933ZM46.3143 21.0425V26.4558C47.6996 26.1994 48.5719 25.3785 48.5719 23.9158C48.5719 22.2996 47.5713 21.5812 46.3143 21.0425Z" fill="url(#paint0_linear_1_231)"/>
<defs>
<linearGradient id="paint0_linear_1_231" x1="0" y1="48.9999" x2="100" y2="48.9999" gradientUnits="userSpaceOnUse">
<stop stop-color="#DCE35B"/>
<stop offset="1" stop-color="#45B649"/>
</linearGradient>
</defs>
</svg>
