<svg width="82" height="100" viewBox="0 0 82 100" fill="none" xmlns="http://www.w3.org/2000/svg">
<path fill-rule="evenodd" clip-rule="evenodd" d="M78.3638 40.1342L81.0448 30.168C81.1808 29.6628 81.0368 29.1231 80.6671 28.7529L73.3765 21.447L70.7161 11.4753C70.5812 10.9697 70.1869 10.5744 69.6814 10.4383L59.7154 7.7574L52.4248 0.45158C52.0553 0.0812892 51.5159 -0.0638195 51.0105 0.0709382L41.0386 2.73133L31.0724 0.0502363C30.5671 -0.0854979 30.0275 0.0582437 29.6572 0.427949L22.3516 7.71854L12.3799 10.3789C11.8743 10.5139 11.479 10.9082 11.3429 11.4136L8.66178 21.3797L1.35596 28.6704C0.985668 29.0401 0.840559 29.5792 0.975317 30.0848L3.63571 40.0565L0.954616 50.0227C0.818686 50.5279 0.962622 51.0676 1.33233 51.4379L8.62292 58.7435L11.2833 68.7152C11.4183 69.2208 11.8126 69.6161 12.318 69.7522L16.1988 70.7963L4.95965 90.2684C4.31555 91.8605 5.12937 92.6743 6.6076 92.4153L15.3915 90.0604L17.7464 98.846C18.0964 100.152 19.6793 100.421 20.4296 99.1991L31.529 79.9752L38.2235 78.1878C39.0051 77.9793 39.4695 77.1764 39.2608 76.3948C39.052 75.6132 38.2495 75.149 37.4677 75.3573L31.0511 77.0707L24.0806 70.0858C23.899 69.9038 23.6726 69.7727 23.4244 69.7059L13.896 67.1426L11.3526 57.609C11.2864 57.3605 11.1558 57.1338 10.9741 56.9518L4.00366 49.9668L6.56698 40.4383C6.63378 40.1901 6.63397 39.9286 6.56776 39.6801L4.02416 30.1467L11.0091 23.1762C11.1911 22.9946 11.3222 22.7682 11.389 22.52L13.9523 12.9917L23.4859 10.4481C23.7343 10.3819 23.9611 10.2512 24.1431 10.0696L31.128 3.09908L40.6566 5.66241C40.9048 5.72901 41.1661 5.7294 41.4146 5.66319L50.9486 3.11959L57.9191 10.1045C58.1007 10.2866 58.327 10.4176 58.5753 10.4844L68.1036 13.0477L70.647 22.5813C70.7132 22.8298 70.8439 23.0565 71.0255 23.2385L77.996 30.2235L75.4327 39.752C75.3659 40.0002 75.3657 40.2617 75.4319 40.51L77.9755 50.044L70.9905 57.0145C70.8085 57.1961 70.6775 57.4225 70.6107 57.6707L68.0474 67.199L58.5137 69.7426C58.2653 69.8088 58.0386 69.9395 57.8566 70.1211L50.8718 77.0914L44.6108 75.4052C43.8304 75.1954 43.026 75.6575 42.8156 76.4387C42.6053 77.2199 43.068 78.0236 43.8492 78.2339L50.6179 80.0569L61.6694 99.1991C62.2977 100.288 64.0126 100.356 64.3529 98.8456L66.706 90.0604L75.4897 92.4151C77.0656 92.7718 77.7816 91.7626 77.1375 90.268L65.9006 70.8037L69.6199 69.8114C70.1256 69.6764 70.5209 69.2821 70.657 68.7767L73.3381 58.8107L80.6439 51.5199C81.0142 51.1502 81.1593 50.6111 81.0245 50.1055L78.3638 40.1342ZM23.2939 73.445L18.8928 81.0676C17.8179 82.929 20.4933 84.1719 21.4298 82.5323L25.4368 75.5923L28.7567 78.9191L19.6609 94.6726L17.8421 87.8871C17.53 87.0465 16.932 86.7014 16.0481 86.8516L9.26507 88.67L19.1272 71.5839L22.2844 72.4333L23.2939 73.445ZM72.8322 88.67L66.0496 86.8516C65.1655 86.7014 64.5675 87.0467 64.2554 87.8875L62.4383 94.6716L53.2867 78.8204L56.6099 75.504L60.6677 82.5319C61.8971 84.4719 64.2796 82.9286 63.2047 81.0672L58.7561 73.3623L59.648 72.4722L62.9693 71.5861L72.8322 88.67ZM13.6782 39.5967C14.4844 39.5651 15.1652 40.2004 15.1938 41.0088C15.2529 42.6854 15.4812 44.374 15.872 46.028C17.2313 51.789 20.4194 56.7631 25.0918 60.4129C29.6433 63.9642 35.293 65.9204 40.9997 65.9204C42.9874 65.9204 44.984 65.6864 46.9337 65.2253C60.7899 61.9544 69.4025 48.0199 66.1332 34.1629C64.7715 28.4003 61.5828 23.4262 56.9118 19.7788C52.3617 16.2272 46.7122 14.2711 41.0038 14.2711C39.0182 14.2711 37.0216 14.5048 35.0695 14.9661C28.3735 16.5463 22.6857 20.6533 19.0541 26.5305C17.4313 29.1579 16.3003 31.998 15.6926 34.9714C15.5305 35.764 14.7569 36.2751 13.9641 36.1131C13.1716 35.9512 12.6603 35.1773 12.8224 34.3847C13.4993 31.073 14.7575 27.9125 16.5618 24.9909C20.605 18.4476 26.9388 13.875 34.3963 12.1151C36.5687 11.6019 38.7918 11.3416 41.004 11.3416C47.3624 11.3416 53.6523 13.518 58.7148 17.4697C63.9167 21.5318 67.4678 27.0713 68.9846 33.4899C72.6248 48.9194 63.0351 64.4347 47.6077 68.0765C45.4381 68.5896 43.2146 68.8499 41.0001 68.8499C34.6436 68.8499 28.3539 66.6737 23.2894 62.7221C18.0856 58.6571 14.5352 53.1174 13.0212 46.7014C12.5861 44.8613 12.332 42.9807 12.2662 41.1123C12.2375 40.3037 12.8697 39.6252 13.6782 39.5967ZM41.004 17.4152C45.3432 17.4152 49.591 18.6758 53.2876 21.061C53.9673 21.4997 54.1628 22.4063 53.7243 23.0857C53.2857 23.7658 52.3793 23.9609 51.6992 23.5224C48.477 21.4434 44.7786 20.3445 41.0038 20.3445C39.4877 20.3445 37.9606 20.5232 36.4652 20.8757C31.3491 22.0844 26.9999 25.2268 24.2196 29.7238C21.4407 34.2214 20.5757 39.5158 21.7842 44.6315C22.824 49.0364 25.2604 52.8373 28.8297 55.6235C32.3185 58.3465 36.6408 59.8463 40.9999 59.8463C42.5183 59.8463 44.0448 59.667 45.5367 59.3135C50.6632 58.1034 55.0149 54.9633 57.7917 50.4712C60.5684 45.9791 61.4313 40.6833 60.2216 35.5592C59.5052 32.5272 58.1442 29.8015 56.1761 27.4581C55.6558 26.8388 55.7363 25.9149 56.3558 25.3946C56.9751 24.8743 57.8993 24.9548 58.4194 25.5743C60.6845 28.2712 62.25 31.4042 63.0726 34.886C64.4622 40.772 63.4718 46.8539 60.2835 52.0116C57.0954 57.1693 52.0977 60.7749 46.2111 62.1645C44.4993 62.5701 42.7455 62.776 40.9999 62.776C35.9908 62.776 31.0286 61.0562 27.0271 57.9331C22.9265 54.7321 20.1277 50.3654 18.933 45.3049C17.5446 39.4277 18.5371 33.3472 21.7276 28.1837C24.9196 23.0211 29.9144 19.4133 35.7924 18.0247C37.5085 17.6202 39.2617 17.4152 41.004 17.4152ZM51.3794 34.7984C52.3546 34.9401 53.149 35.6102 53.4535 36.5471C53.7578 37.4839 53.5086 38.4931 52.8034 39.1805L48.7655 43.1164L49.7188 48.6741C49.8852 49.6451 49.4936 50.6082 48.6966 51.187C47.8996 51.7657 46.8629 51.8407 45.9911 51.3823L41 48.7585L36.0088 51.3825C35.0882 51.8366 34.1863 51.7714 33.3033 51.187C32.5063 50.608 32.1145 49.6451 32.2811 48.6743L33.2344 43.1164L29.1965 39.1805C28.4913 38.4929 28.2421 37.4839 28.5464 36.5471C28.8507 35.61 29.6453 34.9401 30.6203 34.7984L36.2006 33.9875L38.6962 28.9309C39.1321 28.0476 40.0149 27.4988 41 27.4988C41.9851 27.4988 42.8678 28.0476 43.3037 28.9309L45.7993 33.9875L51.3794 34.7984ZM45.7479 42.853C45.6665 42.3778 45.8239 41.8929 46.1692 41.5564L50.2359 37.5925L44.6163 36.776C44.1392 36.7066 43.7269 36.4069 43.5135 35.9747L41.0003 30.8824L38.4872 35.9747C38.2737 36.407 37.8615 36.7066 37.3843 36.776L31.7647 37.5925L35.8311 41.5564C36.1764 41.8929 36.3338 42.3778 36.2524 42.853L35.2923 48.4497L40.3185 45.8073C40.7728 45.5831 41.2273 45.5831 41.6818 45.8073L46.708 48.4497L45.7479 42.853Z" fill="url(#paint0_linear_1_223)"/>
<defs>
<linearGradient id="paint0_linear_1_223" x1="0.904297" y1="49.9999" x2="81.0951" y2="49.9999" gradientUnits="userSpaceOnUse">
<stop stop-color="#FDC830"/>
<stop offset="1" stop-color="#F37335"/>
</linearGradient>
</defs>
</svg>
