<svg width="100" height="100" viewBox="0 0 100 100" fill="none" xmlns="http://www.w3.org/2000/svg">
<path fill-rule="evenodd" clip-rule="evenodd" d="M80.9928 26.0148C87.274 29.7963 92.3795 35.2732 95.7625 41.9789C100.498 51.3646 101.294 62.032 98.0033 72.0158C92.5586 88.5533 77.127 99.0623 60.5916 99.0635C56.5203 99.0637 52.3846 98.4269 48.3119 97.0863C43.5197 95.5086 39.1621 93.0777 35.4004 89.9406H19.0914C18.2824 89.9406 17.6268 89.285 17.6268 88.476C17.6268 87.667 18.2824 87.0113 19.0914 87.0113H32.2572C29.5697 84.2117 27.2852 80.9961 25.4877 77.4322C24.1854 74.8498 23.1826 72.1701 22.4795 69.4348H6.19805C5.38906 69.4348 4.7334 68.7791 4.7334 67.9701C4.7334 67.1611 5.38906 66.5055 6.19805 66.5055H21.8441C20.8195 60.7051 21.1223 54.7232 22.7764 48.9344H13.4945C12.6855 48.9344 12.0299 48.2787 12.0299 47.4697C12.0299 46.6607 12.6855 46.0051 13.4945 46.0051H23.7367C25.7437 40.6016 28.932 35.6598 33.0217 31.6432C34.1908 30.4951 35.4367 29.4232 36.7434 28.4287H29.4379C28.6289 28.4287 27.9732 27.773 27.9732 26.9641C27.9732 26.1551 28.6289 25.4994 29.4379 25.4994H41.1727C43.4488 24.2045 45.8527 23.132 48.3385 22.3121C49.1076 22.0592 49.935 22.4764 50.1885 23.2443C50.4418 24.0127 50.0244 24.8408 49.2562 25.0943C38.3086 28.7049 29.6258 37.3836 26.0295 48.3098C22.9844 57.551 23.7209 67.425 28.1029 76.1131C32.485 84.8014 39.9873 91.2615 49.2277 94.3041C68.308 100.584 88.9404 90.1752 95.2207 71.0996C98.2658 61.8586 97.5293 51.9853 93.1467 43.2984C88.7641 34.6113 81.26 28.1502 72.0166 25.1051C66.6783 23.3463 61.1695 22.8432 55.6416 23.6092C54.8418 23.7215 54.1008 23.1607 53.9898 22.3594C53.8787 21.5582 54.4383 20.8185 55.2396 20.7076C58.2592 20.2889 61.273 20.2221 64.2604 20.5023L66.4494 13.867L64.5324 13.2357C62.6367 12.6131 61.6016 10.5594 62.226 8.65819L63.9482 3.43065C64.2492 2.51386 64.8926 1.76737 65.7594 1.32968C66.6256 0.892374 67.6076 0.817764 68.5256 1.11874L75.818 3.52226C76.5861 3.77558 77.0039 4.60351 76.7506 5.37187C76.4973 6.14003 75.6691 6.5578 74.901 6.30448L67.6102 3.90155C67.3758 3.82499 67.1772 3.89589 67.0797 3.94472C66.9826 3.99355 66.8082 4.11112 66.731 4.34589L65.0088 9.57343C64.9311 9.81034 65.0016 10.0094 65.0506 10.107C65.0988 10.2033 65.2148 10.3762 65.4477 10.4527L86.0092 17.2238C86.2439 17.3006 86.4428 17.2301 86.54 17.1808C86.6373 17.132 86.8117 17.0146 86.8889 16.7797L88.6111 11.5521C88.7289 11.1939 88.5256 10.7904 88.1668 10.6728L81.1518 8.36386C80.3834 8.11093 79.9654 7.283 80.2184 6.51464C80.4715 5.74608 81.2992 5.32831 82.0676 5.58124L89.0818 7.88983C90.9807 8.51347 92.0182 10.567 91.3941 12.4674L89.6719 17.6949C89.3707 18.6117 88.7273 19.3584 87.8605 19.7961C87.3441 20.0568 86.7861 20.1889 86.2252 20.1889C85.8457 20.1889 85.4648 20.1283 85.0945 20.0068L83.1789 19.376L80.9928 26.0148ZM69.2318 14.7834L67.215 20.8965C69.1373 21.2271 71.0455 21.701 72.9336 22.323C74.8205 22.9447 76.64 23.6986 78.3826 24.575L80.3963 18.46L69.2318 14.7834ZM19.6783 28.4286H1.46465C0.655664 28.4286 0 27.7729 0 26.9639C0 26.1549 0.655664 25.4993 1.46465 25.4993H19.6783C20.4873 25.4993 21.143 26.1549 21.143 26.9639C21.143 27.7729 20.4873 28.4286 19.6783 28.4286ZM7.32183 35.7522C6.51284 35.7522 5.85718 36.4079 5.85718 37.2168C5.85718 38.0258 6.51284 38.6815 7.32183 38.6815H21.09C21.899 38.6815 22.5546 38.0258 22.5546 37.2168C22.5546 36.4079 21.899 35.7522 21.09 35.7522H7.32183ZM11.7672 56.2526C12.5762 56.2526 13.2318 56.9082 13.2318 57.7172C13.2318 58.5262 12.5762 59.1821 11.7672 59.1819H1.46465C0.655664 59.1819 0 58.5262 0 57.7172C0 56.9082 0.655664 56.2526 1.46465 56.2526H11.7672ZM19.089 78.2232C19.089 77.4142 18.4333 76.7585 17.6244 76.7585H10.4498C9.64077 76.7585 8.98511 77.4142 8.98511 78.2232C8.98511 79.0322 9.64058 79.6878 10.4498 79.6878H17.6244C18.4333 79.6878 19.089 79.0322 19.089 78.2232ZM50.9302 89.142C34.6999 83.7995 25.8425 66.2459 31.186 50.0125C33.7772 42.1481 39.2747 35.7633 46.6655 32.0338C48.2804 31.219 49.9649 30.542 51.696 30.0172C54.721 29.1 57.8849 28.6522 61.0458 28.6989C64.1907 28.7452 67.3392 29.2735 70.3237 30.2684C86.52 35.6016 95.3835 53.12 90.0884 69.3274L90.0769 69.3657L90.0767 69.3661C90.0729 69.3784 90.069 69.3908 90.0649 69.4032C87.4739 77.2666 81.9765 83.6504 74.5854 87.3786C70.1923 89.5944 65.4419 90.7147 60.6604 90.7147C57.3972 90.7147 54.1196 90.193 50.9302 89.142ZM66.9601 60.1907L87.7186 67.027C91.4587 53.2211 84.1206 38.7121 70.7837 33.5438L63.9636 54.25C64.9565 54.858 65.7649 55.7301 66.3026 56.7961C66.8401 57.862 67.061 59.0303 66.9601 60.1907ZM59.5747 62.8918C60.4405 63.1764 61.3651 63.1075 62.179 62.6973C62.9921 62.2871 63.5966 61.5852 63.8811 60.7205L63.8815 60.7192L63.8819 60.7182C64.1661 59.8528 64.097 58.9282 63.6868 58.1151C63.2766 57.302 62.5749 56.6975 61.7104 56.4127L61.7089 56.4123L61.7073 56.4118C61.3552 56.2961 60.997 56.2411 60.6448 56.2411C59.2112 56.2411 57.8739 57.1516 57.4024 58.5846C56.8145 60.3721 57.7888 62.3041 59.5747 62.8918ZM68.0009 32.628C65.5602 31.9598 63.0737 31.6262 60.5968 31.6262C56.755 31.6262 52.9366 32.4266 49.3448 34.0086L50.946 37.176C51.311 37.8979 51.0216 38.7789 50.2997 39.144C50.0878 39.251 49.8622 39.302 49.6399 39.302C49.105 39.302 48.5893 39.0077 48.3315 38.4977L46.7268 35.3237C41.1089 38.5182 36.8284 43.4746 34.4839 49.495L37.8905 50.6188C38.6587 50.8721 39.0761 51.7004 38.8226 52.4686C38.6194 53.0844 38.047 53.4748 37.4319 53.4748C37.28 53.4748 37.1253 53.451 36.9729 53.4006L33.5618 52.2752C31.797 58.6905 32.4263 65.2606 34.9407 70.9805L38.1675 69.3532C38.8895 68.9883 39.7706 69.2789 40.1347 70.0014C40.4989 70.7237 40.2087 71.6043 39.4864 71.9686L36.2561 73.5977C39.352 79.0342 44.2587 83.4604 50.4675 85.8659L51.6081 82.4041C51.861 81.6358 52.6884 81.2178 53.4575 81.4713C54.2259 81.7245 54.6436 82.5526 54.3903 83.3207L53.2499 86.7821C59.502 88.494 66.0534 88.0012 71.979 85.3721L70.3425 82.1268C69.9782 81.4045 70.2684 80.5237 70.9907 80.1596C71.7128 79.7952 72.5936 80.0854 72.9579 80.8079L74.5921 84.0485C80.2097 80.8346 84.4835 75.8561 86.8091 69.812L66.0438 62.9735C65.436 63.9668 64.564 64.7752 63.4979 65.3129C63.2845 65.4205 63.0667 65.5145 62.8458 65.5969L63.345 69.8709C63.439 70.6745 62.8638 71.402 62.0602 71.4957C62.0026 71.5024 61.9452 71.5059 61.8884 71.5059C61.1554 71.5059 60.5225 70.9569 60.4354 70.211L59.9378 65.9504C59.5079 65.9014 59.0796 65.8129 58.6589 65.6745C57.0505 65.1454 55.7444 64.0207 54.9815 62.5084C54.219 60.9963 54.0905 59.278 54.6198 57.6694C54.7058 57.408 54.8091 57.1559 54.9255 56.9116L45.0263 47.8881C44.4286 47.343 44.3856 46.4166 44.9306 45.8188C45.4755 45.2209 46.4019 45.1782 46.9999 45.7231L56.771 54.6299C57.0856 54.3887 57.4243 54.1743 57.786 53.9918C58.8518 53.4541 60.0202 53.2332 61.1808 53.3342L68.0009 32.628Z" fill="url(#paint0_linear_1_238)"/>
<defs>
<linearGradient id="paint0_linear_1_238" x1="0" y1="50.0002" x2="100" y2="50.0002" gradientUnits="userSpaceOnUse">
<stop stop-color="#36D1DC"/>
<stop offset="1" stop-color="#5B86E5"/>
</linearGradient>
</defs>
</svg>
